# xmcd
#
# Track frame offsets:
#	150
#	16660
#	32755
#	49500
#	65942
#	82170
#	97537
#	116032
#	135850
#	151750
#	168555
#	186409
#	204545
#	222395
#
# Disc length: 3241 seconds
#
# Revision: 1
# Processed by: cddbd v1.5.1PL0 Copyright (c) Steve Scherf et al.
# Submitted via: CDex 1.50Beta5
#
DISCID=b90ca70e
DTITLE=松田聖子 - Complete Bible Seiko Matsuda All Singles Collectio Disc 2
DYEAR=1996
DGENRE=Pop
TTITLE0=赤いスイートピー
TTITLE1=制服
TTITLE2=渚のバルコニー
TTITLE3=レモネードの夏
TTITLE4=小麦色のマーメイド
TTITLE5=マドラス・チェックの恋人
TTITLE6=野ばらのエチュード
TTITLE7=愛されたいの
TTITLE8=秘密の花園
TTITLE9=レンガの小径
TTITLE10=天国のキッス
TTITLE11=わがままな片想い
TTITLE12=ガラスの林檎
TTITLE13=SWEET MEMORIES
EXTD=
EXTT0=
EXTT1=
EXTT2=
EXTT3=
EXTT4=
EXTT5=
EXTT6=
EXTT7=
EXTT8=
EXTT9=
EXTT10=
EXTT11=
EXTT12=
EXTT13=
PLAYORDER=
